<?xml version="1.0" encoding="UTF-8" standalone="no"?>
<svg
   id="Livello_1"
   data-name="Livello 1"
   viewBox="0 0 396.33 151.67"
   version="1.1"
   sodipodi:docname="logo_new_font.svg"
   inkscape:export-filename="logo.png"
   inkscape:export-xdpi="96"
   inkscape:export-ydpi="96"
   inkscape:version="1.3.2 (091e20e, 2023-11-25, custom)"
   xmlns:inkscape="http://www.inkscape.org/namespaces/inkscape"
   xmlns:sodipodi="http://sodipodi.sourceforge.net/DTD/sodipodi-0.dtd"
   xmlns="http://www.w3.org/2000/svg"
   xmlns:svg="http://www.w3.org/2000/svg">
  <sodipodi:namedview
     id="namedview17"
     pagecolor="#505050"
     bordercolor="#ffffff"
     borderopacity="1"
     inkscape:showpageshadow="0"
     inkscape:pageopacity="0"
     inkscape:pagecheckerboard="1"
     inkscape:deskcolor="#505050"
     inkscape:zoom="1.5736084"
     inkscape:cx="111.84486"
     inkscape:cy="77.846561"
     inkscape:window-width="2560"
     inkscape:window-height="1369"
     inkscape:window-x="-8"
     inkscape:window-y="-8"
     inkscape:window-maximized="1"
     inkscape:current-layer="Livello_1" />
  <defs
     id="defs1">
    <rect
       x="-57.193392"
       y="-87.061052"
       width="632.9402"
       height="393.36344"
       id="rect17" />
    <style
       id="style1">
      .cls-1 {
        letter-spacing: 0em;
      }

      .cls-2 {
        letter-spacing: .02em;
      }

      .cls-3, .cls-4 {
        fill: #fff;
      }

      .cls-5 {
        letter-spacing: 0em;
      }

      .cls-6 {
        letter-spacing: -.04em;
      }

      .cls-7 {
        letter-spacing: 0em;
      }

      .cls-8 {
        letter-spacing: 0em;
      }

      .cls-9 {
        letter-spacing: 0em;
      }

      .cls-4 {
        font-family: Signika-Medium, Signika;
        font-size: 51.59px;
        font-variation-settings: 'wght' 500, 'GRAD' 0;
        font-weight: 500;
      }

      .cls-10 {
        fill: #1d71b8;
      }

      .cls-11 {
        fill: #be1622;
      }

      .cls-12 {
        letter-spacing: 0em;
      }
    </style>
  </defs>
  <text
     class="cls-4"
     id="text10"
     style="font-style:normal;font-variant:normal;font-weight:normal;font-stretch:normal;font-size:46.6667px;font-family:Signika-Medium, Signika;-inkscape-font-specification:'Signika-Medium, Signika, Normal';font-variant-ligatures:normal;font-variant-caps:normal;font-variant-numeric:normal;font-variant-east-asian:normal;font-variation-settings:'GRAD' 0, 'wght' 500;fill:#ffffff"
     x="-0.50258923"
     y="40.810001"><tspan
       sodipodi:role="line"
       id="tspan18"
       x="-0.50258923"
       y="40.810001">GiacomoVaccario</tspan></text>
  <path
     class="cls-10"
     d="M139.32,100.31c51.28-48.14,133.15-57.26,196.36-28.73,15.25,7.12,29.98,16.1,42.11,27.79-33.67-25.07-75.66-37.7-117.4-38.02-43.06-.17-86.53,12.86-121.07,38.96h0Z"
     id="path10" />
  <path
     class="cls-10"
     d="M14.43,100.57c21.4,16.72,46.85,27.96,73.11,34.4,3.77.88,8.07,1.65,11.89,2.46,0,0,4.01.56,4.01.56l8,1.15s8.06.69,8.06.69l4.03.35s4.04.09,4.04.09c2.88,0,9.35.31,12.13.09,2.92-.11,7.2-.25,10.1-.36,33.02-2.46,65.58-12.58,93.5-30.56,4.58-2.95,9.06-6.08,13.32-9.53-5.73,5.87-12.27,11.11-19.04,15.75-6.7,4.68-14.13,8.88-21.46,12.49-.92.5-2.79,1.37-3.75,1.77-3.55,1.57-7.85,3.46-11.51,4.75-12.28,4.76-25.22,7.76-38.21,9.83-2.76.3-9.65,1.05-12.42,1.35-4.62.15-9.95.57-14.56.57-44.03-.1-89.25-14.95-121.24-45.86h0Z"
     id="path11" />
  <path
     class="cls-11"
     d="M26.52,99.07c17.07-.87,35.79-1.61,52.94-2.1,8.82-.26,17.64-1.03,26.47-.6,8.87.4,17.7,1.05,26.47,2.7,0,0,0,.6,0,.6-4.41.86-8.82,1.39-13.23,1.81-8.81.82-17.63,1.26-26.47.86-4.41-.2-8.82-.44-13.23-.57-6.59-.18-19.88-.63-26.47-.9-8.82-.4-17.65-.72-26.47-1.2,0,0,0-.6,0-.6h0Z"
     id="path12" />
  <path
     class="cls-10"
     d="M271.92,99.07c17.07-.87,35.79-1.61,52.94-2.1,8.82-.26,17.64-1.03,26.47-.6,8.87.4,17.7,1.05,26.47,2.7,0,0,0,.6,0,.6-4.41.86-8.82,1.39-13.23,1.81-8.81.82-17.63,1.26-26.47.86-4.41-.2-8.82-.44-13.23-.57-6.59-.18-19.88-.63-26.47-.9-8.82-.4-17.65-.72-26.47-1.2v-.6h0Z"
     id="path13" />
  <path
     class="cls-11"
     d="M20.9,102.35c20.27-20.15,49.39-36.55,78.6-27.99,12.04,3.67,22.46,11.42,32.68,18.14,39.8,25.69,93.4,50.12,141.28,50.57,38.95.15,75.19-18.91,104.34-43.7-27.56,27.45-64.63,48.18-104.29,48.85-49.41.52-103.83-24.13-144.25-51.37-10.13-6.83-19.53-14.46-31.05-18.38-27.87-9.02-56.35,6.1-77.29,23.87h0Z"
     id="path14" />
  <circle
     class="cls-3"
     cx="143.16"
     cy="99.37"
     r="15.25"
     id="circle14" />
  <circle
     class="cls-3"
     cx="19.07"
     cy="100.31"
     r="15.25"
     id="circle15" />
  <circle
     class="cls-3"
     cx="377.79"
     cy="99.37"
     r="15.25"
     id="circle16" />
  <circle
     class="cls-3"
     cx="260.04"
     cy="99.37"
     r="15.25"
     id="circle17" />
  <text
     xml:space="preserve"
     id="text17"
     style="fill:#7692a4;stroke-width:5;stroke-miterlimit:3.3;stroke-linejoin:round;line-height:0;font-size:49.33333333px;-inkscape-font-specification:'Microsoft Sans Serif, Normal';font-family:'Microsoft Sans Serif';font-weight:normal;font-style:normal;font-stretch:normal;font-variant:normal;font-variant-ligatures:normal;font-variant-caps:normal;font-variant-numeric:normal;font-variant-east-asian:normal;white-space:pre;shape-inside:url(#rect17)" />
</svg>
