<?xml version="1.0" encoding="UTF-8"?>
<svg id="Livello_1" data-name="Livello 1" xmlns="http://www.w3.org/2000/svg" viewBox="0 0 396 152.16">
  <defs>
    <style>
      .cls-1 {
        letter-spacing: 0em;
      }

      .cls-2 {
        letter-spacing: .02em;
      }

      .cls-3 {
        font-family: Signika-Medium, Signika;
        font-size: 51.59px;
        font-variation-settings: 'wght' 500, 'GRAD' 0;
        font-weight: 500;
      }

      .cls-3, .cls-4 {
        fill: #3c3c3b;
      }

      .cls-5 {
        letter-spacing: 0em;
      }

      .cls-6 {
        letter-spacing: -.04em;
      }

      .cls-7 {
        letter-spacing: 0em;
      }

      .cls-8 {
        letter-spacing: 0em;
      }

      .cls-9 {
        letter-spacing: 0em;
      }

      .cls-10 {
        fill: #1d71b8;
      }

      .cls-11 {
        fill: #be1622;
      }

      .cls-12 {
        letter-spacing: 0em;
      }
    </style>
  </defs>
  <path class="cls-10" d="M138.74,100.14c51.28-48.14,133.15-57.26,196.36-28.73,15.25,7.12,29.98,16.1,42.11,27.79-33.67-25.07-75.66-37.7-117.4-38.02-43.06-.17-86.53,12.86-121.07,38.96h0Z"/>
  <path class="cls-10" d="M13.85,100.41c21.4,16.72,46.85,27.96,73.11,34.4,3.77.88,8.07,1.65,11.89,2.46,0,0,4.01.56,4.01.56l8,1.15,8.06.69,4.03.35,4.04.09c2.88,0,9.35.31,12.13.09,2.92-.11,7.2-.25,10.1-.36,33.02-2.46,65.58-12.58,93.5-30.56,4.58-2.95,9.06-6.08,13.32-9.53-5.73,5.87-12.27,11.11-19.04,15.75-6.7,4.68-14.13,8.88-21.46,12.49-.92.5-2.79,1.37-3.75,1.77-3.55,1.57-7.85,3.46-11.51,4.75-12.28,4.76-25.22,7.76-38.21,9.83-2.76.3-9.65,1.05-12.42,1.35-4.62.15-9.95.57-14.56.57-44.03-.1-89.25-14.95-121.24-45.86h0Z"/>
  <path class="cls-11" d="M25.95,98.9c17.07-.87,35.79-1.61,52.94-2.1,8.82-.26,17.64-1.03,26.47-.6,8.87.4,17.7,1.05,26.47,2.7,0,0,0,.6,0,.6-4.41.86-8.82,1.39-13.23,1.81-8.81.82-17.63,1.26-26.47.86-4.41-.2-8.82-.44-13.23-.57-6.59-.18-19.88-.63-26.47-.9-8.82-.4-17.65-.72-26.47-1.2,0,0,0-.6,0-.6h0Z"/>
  <path class="cls-10" d="M271.34,98.9c17.07-.87,35.79-1.61,52.94-2.1,8.82-.26,17.64-1.03,26.47-.6,8.87.4,17.7,1.05,26.47,2.7,0,0,0,.6,0,.6-4.41.86-8.82,1.39-13.23,1.81-8.81.82-17.63,1.26-26.47.86-4.41-.2-8.82-.44-13.23-.57-6.59-.18-19.88-.63-26.47-.9-8.82-.4-17.65-.72-26.47-1.2v-.6h0Z"/>
  <text class="cls-3" transform="translate(-.1 41.64)"><tspan x="0" y="0">Gi</tspan><tspan class="cls-8" x="47.56" y="0">a</tspan><tspan class="cls-9" x="73.56" y="0">c</tspan><tspan x="97.6" y="0">omo </tspan><tspan class="cls-6" x="203.89" y="0">V</tspan><tspan class="cls-7" x="231.88" y="0">a</tspan><tspan class="cls-1" x="257.88" y="0">c</tspan><tspan class="cls-5" x="281.92" y="0">ca</tspan><tspan class="cls-2" x="332.47" y="0">r</tspan><tspan class="cls-12" x="352.67" y="0">io</tspan></text>
  <path class="cls-11" d="M20.32,102.18c20.27-20.15,49.39-36.55,78.6-27.99,12.04,3.67,22.46,11.42,32.68,18.14,39.8,25.69,93.4,50.12,141.28,50.57,38.95.15,75.19-18.91,104.34-43.7-27.56,27.45-64.63,48.18-104.29,48.85-49.41.52-103.83-24.13-144.25-51.37-10.13-6.83-19.53-14.46-31.05-18.38-27.87-9.02-56.35,6.1-77.29,23.87h0Z"/>
  <circle class="cls-4" cx="142.59" cy="99.2" r="15.25"/>
  <circle class="cls-4" cx="18.49" cy="100.14" r="15.25"/>
  <circle class="cls-4" cx="377.21" cy="99.2" r="15.25"/>
  <circle class="cls-4" cx="259.46" cy="99.2" r="15.25"/>
</svg>